<svg fill='#ffffff' width="120px" height="120px" viewBox="0 0 32 32" version="1.1" xmlns="http://www.w3.org/2000/svg" stroke='#004219' stroke-width="0.00032">
    <g id="SVGRepo_iconCarrier">
                <path d="M15.915 1.542c-7.891 0-14.287 6.397-14.287 14.287s6.397 14.287 14.287 14.287 14.287-6.396 14.287-14.287c0-7.89-6.396-14.287-14.287-14.287zM15.913 29.025c-7.291 0-13.201-5.91-13.201-13.201s5.91-13.201 13.201-13.201 13.201 5.91 13.201 13.201-5.91 13.201-13.201 13.201zM25.552 16.896l-3.911 1.048-1.542-1.346 0.766-0.766-0.715-0.715 1.512-1.32 3.846 1.010-2.645-2.059 3.016-2.632-3.764 1.288-0.451-3.405-1.050 3.919-1.954 0.669-0.288-1.075-1.051 0.281-0.388-1.977 2.877-2.877-3.183 1.316-0.768-3.913-0.772 3.93-3.094-1.256 2.788 2.816-0.383 1.95-1.009-0.27-0.284 1.061-1.895-0.649-1.049-3.915-0.45 3.402-3.76-1.287 3.015 2.631-2.648 2.062 3.851-1.012 1.47 1.283-0.743 0.743 0.794 0.794-1.499 1.308-3.916-1.049 2.722 2.091-3.008 2.625 3.801-1.3 0.461 3.317 1.047-3.833 1.828-0.625 0.264 0.986 1.010-0.271 0.382 1.946-2.788 2.815 3.094-1.256 0.772 3.932 0.769-3.916 3.183 1.316-2.876-2.876 0.387-1.972 1.051 0.282 0.268-1 1.887 0.646 1.048 3.837 0.461-3.32 3.804 1.302-3.009-2.625zM19.812 6.941l-0 0 0-0zM19.812 24.712l-0-0 0 0z"/>
    </g>
</svg>