<svg width="30" height="30" viewBox="0 0 24 24" fill="none" xmlns="http://www.w3.org/2000/svg">

    <!-- Logo -->
    <g id="logo"> <!--viewBox="0 0 32 32"-->
        <path d="M15.915 1.542c-7.891 0-14.287 6.397-14.287 14.287s6.397 14.287 14.287 14.287 14.287-6.396 14.287-14.287c0-7.89-6.396-14.287-14.287-14.287zM15.913 29.025c-7.291 0-13.201-5.91-13.201-13.201s5.91-13.201 13.201-13.201 13.201 5.91 13.201 13.201-5.91 13.201-13.201 13.201zM25.552 16.896l-3.911 1.048-1.542-1.346 0.766-0.766-0.715-0.715 1.512-1.32 3.846 1.010-2.645-2.059 3.016-2.632-3.764 1.288-0.451-3.405-1.050 3.919-1.954 0.669-0.288-1.075-1.051 0.281-0.388-1.977 2.877-2.877-3.183 1.316-0.768-3.913-0.772 3.93-3.094-1.256 2.788 2.816-0.383 1.95-1.009-0.27-0.284 1.061-1.895-0.649-1.049-3.915-0.45 3.402-3.76-1.287 3.015 2.631-2.648 2.062 3.851-1.012 1.47 1.283-0.743 0.743 0.794 0.794-1.499 1.308-3.916-1.049 2.722 2.091-3.008 2.625 3.801-1.3 0.461 3.317 1.047-3.833 1.828-0.625 0.264 0.986 1.010-0.271 0.382 1.946-2.788 2.815 3.094-1.256 0.772 3.932 0.769-3.916 3.183 1.316-2.876-2.876 0.387-1.972 1.051 0.282 0.268-1 1.887 0.646 1.048 3.837 0.461-3.32 3.804 1.302-3.009-2.625zM19.812 6.941l-0 0 0-0zM19.812 24.712l-0-0 0 0z"
              fill="#ffffff"/>
    </g>

    <!-- My Contacts -->
    <g id="facebook"> <!--viewBox="0 0 24 24"-->
        <path d="M22 12C22 6.47714 17.5229 1.99999 12 1.99999C6.47715 1.99999 2 6.47714 2 12C2 16.9913 5.65686 21.1283 10.4375 21.8785V14.8906H7.89844V12H10.4375V9.79687C10.4375 7.29062 11.9304 5.90624 14.2146 5.90624C15.3087 5.90624 16.4531 6.10155 16.4531 6.10155V8.56249H15.1921C13.9499 8.56249 13.5625 9.33333 13.5625 10.1242V12H16.3359L15.8926 14.8906H13.5625V21.8785C18.3431 21.1283 22 16.9913 22 12Z"
              fill="#000000"/>
    </g>

    <g id="website"> <!--viewBox="0 0 24 24"-->
        <path d="M18.0041 2H17.9993H17.9981H14.5613L14.194 2.36492L12.4426 5.70806L11.9312 6.00336H6V10.9995H9.16908L9.49919 11.3296L6 18.0086V21.9868V22L9.44517 21.9988L9.8137 21.6327L11.5687 18.2883L12.0693 17.999H18.0041V13.0053H14.8254L14.5037 12.6836L18.0041 6.00096" fill="#000000"/>
    </g>

    <g id="vk"> <!--viewBox="0 0 24 24"-->
        <path fill-rule="evenodd" clip-rule="evenodd"
              d="M3.4 3.4C2 4.81333 2 7.07333 2 11.6V12.4C2 16.92 2 19.18 3.4 20.6C4.81333 22 7.07333 22 11.6 22H12.4C16.92 22 19.18 22 20.6 20.6C22 19.1867 22 16.9267 22 12.4V11.6C22 7.08 22 4.82 20.6 3.4C19.1867 2 16.9267 2 12.4 2H11.6C7.08 2 4.82 2 3.4 3.4ZM5.37333 8.08667C5.48 13.2867 8.08 16.4067 12.64 16.4067H12.9067V13.4333C14.58 13.6 15.8467 14.8267 16.3533 16.4067H18.72C18.4773 15.5089 18.0469 14.6727 17.4574 13.9533C16.8679 13.234 16.1326 12.6478 15.3 12.2333C16.0461 11.779 16.6905 11.1756 17.1929 10.461C17.6953 9.7464 18.045 8.93585 18.22 8.08H16.0733C15.6067 9.73334 14.22 11.2333 12.9067 11.3733V8.08667H10.7533V13.8467C9.42 13.5133 7.74 11.9 7.66666 8.08667H5.37333Z"
              fill="#000000"/>
    </g>

    <g id="twitter"> <!--viewBox="0 0 24 24"-->
        <path d="M22 5.9246C21.2645 6.25051 20.4744 6.47071 19.6438 6.57025C20.4911 6.06289 21.1412 5.25782 21.4477 4.29948C20.655 4.76984 19.7768 5.1116 18.8422 5.29481C18.0935 4.49855 17.0277 4 15.8474 4C13.582 4 11.7446 5.8374 11.7446 8.10464C11.7446 8.42526 11.7816 8.73707 11.8503 9.03832C8.43883 8.86656 5.41672 7.23263 3.39258 4.75046C3.04025 5.35823 2.83766 6.06289 2.83766 6.81335C2.83766 8.23677 3.56258 9.4937 4.66273 10.2292C3.98978 10.2072 3.35735 10.0231 2.80419 9.71567V9.76852C2.80419 11.7565 4.21792 13.4151 6.09583 13.7921C5.75055 13.8855 5.38853 13.9348 5.01506 13.9348C4.75081 13.9348 4.49273 13.9102 4.24258 13.8626C4.76491 15.4921 6.27993 16.6795 8.07593 16.7112C6.67101 17.8122 4.90144 18.4684 2.97948 18.4684C2.64829 18.4684 2.3215 18.449 2 18.4112C3.81626 19.5765 5.97252 20.2547 8.28909 20.2547C15.8378 20.2547 19.9644 14.0026 19.9644 8.58029C19.9644 8.40412 19.96 8.2262 19.9521 8.05003C20.7536 7.47045 21.4495 6.74905 21.9982 5.92724L22 5.9246Z"
              fill="#000000"/>
    </g>

    <g id="instagram"> <!--viewBox="0 0 24 24"-->
        <path fill-rule="evenodd" clip-rule="evenodd"
              d="M12 2C9.284 2 8.944 2.01133 7.87733 2.06C6.81267 2.10867 6.08533 2.278 5.44933 2.52533C4.78267 2.776 4.178 3.16933 3.678 3.67867C3.16948 4.17809 2.77591 4.78233 2.52467 5.44933C2.27867 6.08533 2.10867 6.81333 2.06 7.878C2.012 8.944 2 9.28333 2 12C2 14.7167 2.01133 15.056 2.06 16.1227C2.10867 17.1873 2.278 17.9147 2.52533 18.5507C2.776 19.2173 3.16933 19.822 3.67867 20.322C4.1781 20.8305 4.78234 21.2241 5.44933 21.4753C6.08533 21.722 6.81267 21.8913 7.87733 21.94C8.944 21.9887 9.284 22 12 22C14.716 22 15.056 21.9887 16.1227 21.94C17.1873 21.8913 17.9147 21.722 18.5507 21.4747C19.2173 21.224 19.822 20.8307 20.322 20.3213C20.8305 19.8219 21.2241 19.2177 21.4753 18.5507C21.722 17.9147 21.8913 17.1873 21.94 16.1227C21.9887 15.056 22 14.716 22 12C22 9.284 21.9887 8.944 21.94 7.87733C21.8913 6.81267 21.722 6.08533 21.4747 5.44933C21.2236 4.78204 20.83 4.17755 20.3213 3.678C19.8219 3.16948 19.2177 2.77591 18.5507 2.52467C17.9147 2.27867 17.1867 2.10867 16.122 2.06C15.056 2.012 14.7167 2 12 2ZM12 3.802C14.67 3.802 14.9867 3.812 16.0413 3.86C17.016 3.90467 17.5453 4.06667 17.898 4.20467C18.3647 4.38533 18.698 4.60267 19.048 4.952C19.398 5.302 19.6147 5.63533 19.7953 6.102C19.9327 6.45467 20.0953 6.984 20.14 7.95867C20.188 9.01333 20.198 9.33 20.198 12C20.198 14.67 20.188 14.9867 20.14 16.0413C20.0953 17.016 19.9333 17.5453 19.7953 17.898C19.6353 18.3324 19.3799 18.7253 19.048 19.048C18.7254 19.38 18.3324 19.6354 17.898 19.7953C17.5453 19.9327 17.016 20.0953 16.0413 20.14C14.9867 20.188 14.6707 20.198 12 20.198C9.32933 20.198 9.01333 20.188 7.95867 20.14C6.984 20.0953 6.45467 19.9333 6.102 19.7953C5.66764 19.6353 5.27467 19.3799 4.952 19.048C4.62012 18.7253 4.36475 18.3323 4.20467 17.898C4.06733 17.5453 3.90467 17.016 3.86 16.0413C3.812 14.9867 3.802 14.67 3.802 12C3.802 9.33 3.812 9.01333 3.86 7.95867C3.90467 6.984 4.06667 6.45467 4.20467 6.102C4.38533 5.63533 4.60267 5.302 4.952 4.952C5.27463 4.62003 5.66761 4.36465 6.102 4.20467C6.45467 4.06733 6.984 3.90467 7.95867 3.86C9.01333 3.812 9.33 3.802 12 3.802Z"
              fill="#000000"/>
        <path fill-rule="evenodd" clip-rule="evenodd"
              d="M12 15.3367C11.5618 15.3367 11.128 15.2504 10.7231 15.0827C10.3183 14.915 9.95047 14.6692 9.64064 14.3594C9.3308 14.0495 9.08502 13.6817 8.91734 13.2769C8.74965 12.8721 8.66335 12.4382 8.66335 12C8.66335 11.5618 8.74965 11.1279 8.91734 10.7231C9.08502 10.3183 9.3308 9.95046 9.64064 9.64062C9.95047 9.33078 10.3183 9.08501 10.7231 8.91732C11.128 8.74964 11.5618 8.66333 12 8.66333C12.885 8.66333 13.7336 9.01487 14.3594 9.64062C14.9851 10.2664 15.3367 11.1151 15.3367 12C15.3367 12.8849 14.9851 13.7336 14.3594 14.3594C13.7336 14.9851 12.885 15.3367 12 15.3367ZM12 6.86C10.6368 6.86 9.32942 7.40153 8.36549 8.36547C7.40155 9.32941 6.86002 10.6368 6.86002 12C6.86002 13.3632 7.40155 14.6706 8.36549 15.6345C9.32942 16.5985 10.6368 17.14 12 17.14C13.3632 17.14 14.6706 16.5985 15.6345 15.6345C16.5985 14.6706 17.14 13.3632 17.14 12C17.14 10.6368 16.5985 9.32941 15.6345 8.36547C14.6706 7.40153 13.3632 6.86 12 6.86ZM18.6353 6.76667C18.6353 7.0889 18.5073 7.39794 18.2795 7.6258C18.0516 7.85366 17.7426 7.98167 17.4204 7.98167C17.0981 7.98167 16.7891 7.85366 16.5612 7.6258C16.3334 7.39794 16.2053 7.0889 16.2053 6.76667C16.2053 6.44443 16.3334 6.13539 16.5612 5.90753C16.7891 5.67968 17.0981 5.55167 17.4204 5.55167C17.7426 5.55167 18.0516 5.67968 18.2795 5.90753C18.5073 6.13539 18.6353 6.44443 18.6353 6.76667Z"
              fill="#000000"/>
    </g>

    <g id="youtube"> <!--viewBox="0 0 24 24"-->
        <path fill-rule="evenodd" clip-rule="evenodd"
              d="M20.5949 4.45999C21.5421 4.71353 22.2865 5.45785 22.54 6.40501C22.9982 8.12002 23 11.7004 23 11.7004C23 11.7004 23 15.2807 22.54 16.9957C22.2865 17.9429 21.5421 18.6872 20.5949 18.9407C18.88 19.4007 12 19.4007 12 19.4007C12 19.4007 5.12002 19.4007 3.405 18.9407C2.45785 18.6872 1.71353 17.9429 1.45999 16.9957C1 15.2807 1 11.7004 1 11.7004C1 11.7004 1 8.12002 1.45999 6.40501C1.71353 5.45785 2.45785 4.71353 3.405 4.45999C5.12002 4 12 4 12 4C12 4 18.88 4 20.5949 4.45999ZM15.5134 11.7007L9.79788 15.0003V8.40101L15.5134 11.7007Z"
              fill="#000000"/>
    </g>

    <g id="github"> <!--viewBox="0 0 88 88"-->
        <path fill-rule="evenodd" clip-rule="evenodd"
              d="M12 2C6.475 2 2 6.475 2 12C2 16.425 4.8625 20.1625 8.8375 21.4875C9.3375 21.575 9.525 21.275 9.525 21.0125C9.525 20.775 9.5125 19.9875 9.5125 19.15C7 19.6125 6.35 18.5375 6.15 17.975C6.0375 17.6875 5.55 16.8 5.125 16.5625C4.775 16.375 4.275 15.9125 5.1125 15.9C5.9 15.8875 6.4625 16.625 6.65 16.925C7.55 18.4375 8.9875 18.0125 9.5625 17.75C9.65 17.1 9.9125 16.6625 10.2 16.4125C7.975 16.1625 5.65 15.3 5.65 11.475C5.65 10.3875 6.0375 9.4875 6.675 8.7875C6.575 8.5375 6.225 7.5125 6.775 6.1375C6.775 6.1375 7.6125 5.875 9.525 7.1625C10.325 6.9375 11.175 6.825 12.025 6.825C12.875 6.825 13.725 6.9375 14.525 7.1625C16.4375 5.8625 17.275 6.1375 17.275 6.1375C17.825 7.5125 17.475 8.5375 17.375 8.7875C18.0125 9.4875 18.4 10.375 18.4 11.475C18.4 15.3125 16.0625 16.1625 13.8375 16.4125C14.2 16.725 14.5125 17.325 14.5125 18.2625C14.5125 19.6 14.5 20.675 14.5 21.0125C14.5 21.275 14.6875 21.5875 15.1875 21.4875C17.1727 20.8173 18.8977 19.5415 20.1198 17.8395C21.3419 16.1376 21.9995 14.0953 22 12C22 6.475 17.525 2 12 2Z"
              fill="#000000"/>
    </g>

    <g id="mainLink"> <!--viewBox="0 0 24 24"-->
        <path d="M4.97989 13.3088C6.37549 13.3088 7.50685 12.1819 7.50685 10.7918C7.50685 9.40171 6.37549 8.27481 4.97989 8.27481C3.58429 8.27481 2.45293 9.40171 2.45293 10.7918C2.45293 12.1819 3.58429 13.3088 4.97989 13.3088Z" fill="#000000"/>
        <path d="M4.97989 13.8839C3.37746 13.8839 2.203 15.2895 2.203 16.7426V17.7202C2.203 17.8584 2.3158 17.9724 2.45515 17.9724H7.50353C7.64287 17.9724 7.75678 17.8584 7.75678 17.7202V16.7426C7.75678 15.2895 6.58232 13.8839 4.97989 13.8839Z" fill="#000000"/>
        <path d="M11.5489 12.7902C13.0996 12.7902 14.3567 11.538 14.3567 9.99337C14.3567 8.44874 13.0996 7.19657 11.5489 7.19657C9.99814 7.19657 8.74102 8.44874 8.74102 9.99337C8.74102 11.538 9.99814 12.7902 11.5489 12.7902Z" fill="#000000"/>
        <path d="M11.5489 13.4283C9.76839 13.4283 8.46344 14.9909 8.46344 16.6055V17.6926C8.46344 17.8463 8.58951 17.9724 8.74434 17.9724H14.3534C14.5082 17.9724 14.6343 17.8463 14.6343 17.6926V16.6055C14.6332 14.9909 13.3282 13.4283 11.5489 13.4283Z" fill="#000000"/>
        <path d="M18.7747 12.2151C20.4971 12.2151 21.8934 10.8238 21.8934 9.10755C21.8934 7.3913 20.4971 6 18.7747 6C17.0524 6 15.6561 7.3913 15.6561 9.10755C15.6561 10.8238 17.0524 12.2151 18.7747 12.2151Z" fill="#000000"/>
        <path d="M18.7747 12.924C16.7963 12.924 15.3465 14.6602 15.3465 16.454V17.6616C15.3465 17.8319 15.4858 17.9724 15.6584 17.9724H21.8911C22.0637 17.9724 22.203 17.8319 22.203 17.6616V16.454C22.203 14.6602 20.7521 12.924 18.7747 12.924Z" fill="#000000"/>
    </g>
</svg>
